<mxfile host="app.diagrams.net" agent="Mozilla/5.0 (Macintosh; Intel Mac OS X 10_15_7) AppleWebKit/537.36 (KHTML, like Gecko) Chrome/135.0.0.0 Safari/537.36" version="26.2.7">
  <diagram name="Page-1" id="uh6wIrzWJQw6uuRDmZ0N">
    <mxGraphModel dx="1405" dy="2353" grid="1" gridSize="10" guides="1" tooltips="1" connect="1" arrows="1" fold="1" page="1" pageScale="1" pageWidth="827" pageHeight="1169" math="0" shadow="0">
      <root>
        <mxCell id="0" />
        <mxCell id="1" parent="0" />
        <mxCell id="HS3_8JKeATMmWrac0AjY-1" value="FILM" style="swimlane;childLayout=stackLayout;horizontal=1;startSize=50;horizontalStack=0;rounded=1;fontSize=14;fontStyle=0;strokeWidth=2;resizeParent=0;resizeLast=1;shadow=0;dashed=0;align=center;arcSize=4;whiteSpace=wrap;html=1;" vertex="1" parent="1">
          <mxGeometry x="550" width="160" height="170" as="geometry">
            <mxRectangle x="80" y="180" width="70" height="50" as="alternateBounds" />
          </mxGeometry>
        </mxCell>
        <mxCell id="HS3_8JKeATMmWrac0AjY-2" value="&lt;b&gt;film_id&lt;/b&gt;&lt;div&gt;title&lt;/div&gt;&lt;div&gt;production_year&lt;/div&gt;&lt;div&gt;country_code&lt;/div&gt;&lt;div&gt;duration&lt;/div&gt;&lt;div&gt;director_first_name&lt;/div&gt;&lt;div&gt;director_last_name&lt;/div&gt;&lt;div&gt;&lt;br&gt;&lt;/div&gt;" style="align=left;strokeColor=none;fillColor=none;spacingLeft=4;spacingRight=4;fontSize=12;verticalAlign=top;resizable=0;rotatable=0;part=1;html=1;whiteSpace=wrap;" vertex="1" parent="HS3_8JKeATMmWrac0AjY-1">
          <mxGeometry y="50" width="160" height="120" as="geometry" />
        </mxCell>
        <mxCell id="HS3_8JKeATMmWrac0AjY-4" value="ACTOR" style="swimlane;childLayout=stackLayout;horizontal=1;startSize=50;horizontalStack=0;rounded=1;fontSize=14;fontStyle=0;strokeWidth=2;resizeParent=0;resizeLast=1;shadow=0;dashed=0;align=center;arcSize=4;whiteSpace=wrap;html=1;" vertex="1" parent="1">
          <mxGeometry x="1190" y="25" width="160" height="120" as="geometry" />
        </mxCell>
        <mxCell id="HS3_8JKeATMmWrac0AjY-5" value="&lt;b&gt;actor_id&lt;/b&gt;&lt;br&gt;&lt;div&gt;first_name&lt;br&gt;last_name&lt;/div&gt;" style="align=left;strokeColor=none;fillColor=none;spacingLeft=4;spacingRight=4;fontSize=12;verticalAlign=top;resizable=0;rotatable=0;part=1;html=1;whiteSpace=wrap;" vertex="1" parent="HS3_8JKeATMmWrac0AjY-4">
          <mxGeometry y="50" width="160" height="70" as="geometry" />
        </mxCell>
        <mxCell id="HS3_8JKeATMmWrac0AjY-6" value="FILM_ACTOR" style="swimlane;childLayout=stackLayout;horizontal=1;startSize=50;horizontalStack=0;rounded=1;fontSize=14;fontStyle=0;strokeWidth=2;resizeParent=0;resizeLast=1;shadow=0;dashed=0;align=center;arcSize=4;whiteSpace=wrap;html=1;" vertex="1" parent="1">
          <mxGeometry x="870" y="37.5" width="160" height="95" as="geometry" />
        </mxCell>
        <mxCell id="HS3_8JKeATMmWrac0AjY-7" value="&lt;b&gt;film_id&lt;/b&gt;&lt;br&gt;&lt;div&gt;&lt;b&gt;actor_id&lt;/b&gt;&lt;br&gt;&lt;/div&gt;" style="align=left;strokeColor=none;fillColor=none;spacingLeft=4;spacingRight=4;fontSize=12;verticalAlign=top;resizable=0;rotatable=0;part=1;html=1;whiteSpace=wrap;" vertex="1" parent="HS3_8JKeATMmWrac0AjY-6">
          <mxGeometry y="50" width="160" height="45" as="geometry" />
        </mxCell>
        <mxCell id="HS3_8JKeATMmWrac0AjY-9" value="" style="endArrow=none;html=1;rounded=0;exitX=1;exitY=0.5;exitDx=0;exitDy=0;entryX=0;entryY=0.5;entryDx=0;entryDy=0;" edge="1" parent="1">
          <mxGeometry width="50" height="50" relative="1" as="geometry">
            <mxPoint x="710" y="84.57999999999998" as="sourcePoint" />
            <mxPoint x="870" y="84.57999999999998" as="targetPoint" />
            <Array as="points">
              <mxPoint x="790" y="84.57999999999998" />
            </Array>
          </mxGeometry>
        </mxCell>
        <mxCell id="HS3_8JKeATMmWrac0AjY-10" value="" style="endArrow=none;html=1;rounded=0;exitX=1;exitY=0.5;exitDx=0;exitDy=0;entryX=0;entryY=0.5;entryDx=0;entryDy=0;" edge="1" parent="1">
          <mxGeometry width="50" height="50" relative="1" as="geometry">
            <mxPoint x="1030" y="84.57999999999998" as="sourcePoint" />
            <mxPoint x="1190" y="84.57999999999998" as="targetPoint" />
            <Array as="points">
              <mxPoint x="1110" y="84.57999999999998" />
            </Array>
          </mxGeometry>
        </mxCell>
        <mxCell id="HS3_8JKeATMmWrac0AjY-11" value="1" style="text;html=1;align=center;verticalAlign=middle;resizable=0;points=[];autosize=1;strokeColor=none;fillColor=none;" vertex="1" parent="1">
          <mxGeometry x="715" y="50" width="30" height="30" as="geometry" />
        </mxCell>
        <mxCell id="HS3_8JKeATMmWrac0AjY-12" value="N" style="text;html=1;align=center;verticalAlign=middle;resizable=0;points=[];autosize=1;strokeColor=none;fillColor=none;" vertex="1" parent="1">
          <mxGeometry x="830" y="50" width="30" height="30" as="geometry" />
        </mxCell>
        <mxCell id="HS3_8JKeATMmWrac0AjY-13" value="1" style="text;html=1;align=center;verticalAlign=middle;resizable=0;points=[];autosize=1;strokeColor=none;fillColor=none;" vertex="1" parent="1">
          <mxGeometry x="1160" y="50" width="30" height="30" as="geometry" />
        </mxCell>
        <mxCell id="HS3_8JKeATMmWrac0AjY-14" value="N" style="text;html=1;align=center;verticalAlign=middle;resizable=0;points=[];autosize=1;strokeColor=none;fillColor=none;" vertex="1" parent="1">
          <mxGeometry x="1030" y="50" width="30" height="30" as="geometry" />
        </mxCell>
        <mxCell id="HS3_8JKeATMmWrac0AjY-15" value="COPY" style="swimlane;childLayout=stackLayout;horizontal=1;startSize=50;horizontalStack=0;rounded=1;fontSize=14;fontStyle=0;strokeWidth=2;resizeParent=0;resizeLast=1;shadow=0;dashed=0;align=center;arcSize=4;whiteSpace=wrap;html=1;" vertex="1" parent="1">
          <mxGeometry x="550" y="270" width="160" height="120" as="geometry" />
        </mxCell>
        <mxCell id="HS3_8JKeATMmWrac0AjY-16" value="&lt;div&gt;&lt;b&gt;barcode&lt;/b&gt;&lt;br&gt;&lt;/div&gt;&lt;div&gt;film_id&lt;/div&gt;&lt;div&gt;media_format&lt;/div&gt;&lt;div&gt;sale_price&lt;/div&gt;" style="align=left;strokeColor=none;fillColor=none;spacingLeft=4;spacingRight=4;fontSize=12;verticalAlign=top;resizable=0;rotatable=0;part=1;html=1;whiteSpace=wrap;" vertex="1" parent="HS3_8JKeATMmWrac0AjY-15">
          <mxGeometry y="50" width="160" height="70" as="geometry" />
        </mxCell>
        <mxCell id="HS3_8JKeATMmWrac0AjY-19" value="CATEGORY" style="swimlane;childLayout=stackLayout;horizontal=1;startSize=50;horizontalStack=0;rounded=1;fontSize=14;fontStyle=0;strokeWidth=2;resizeParent=0;resizeLast=1;shadow=0;dashed=0;align=center;arcSize=4;whiteSpace=wrap;html=1;" vertex="1" parent="1">
          <mxGeometry x="550" y="-380" width="160" height="100" as="geometry" />
        </mxCell>
        <mxCell id="HS3_8JKeATMmWrac0AjY-20" value="&lt;div&gt;&lt;b&gt;category_id&lt;/b&gt;&lt;/div&gt;&lt;div&gt;category_name&lt;/div&gt;" style="align=left;strokeColor=none;fillColor=none;spacingLeft=4;spacingRight=4;fontSize=12;verticalAlign=top;resizable=0;rotatable=0;part=1;html=1;whiteSpace=wrap;" vertex="1" parent="HS3_8JKeATMmWrac0AjY-19">
          <mxGeometry y="50" width="160" height="50" as="geometry" />
        </mxCell>
        <mxCell id="HS3_8JKeATMmWrac0AjY-21" style="edgeStyle=orthogonalEdgeStyle;rounded=0;orthogonalLoop=1;jettySize=auto;html=1;exitX=0.5;exitY=1;exitDx=0;exitDy=0;" edge="1" parent="HS3_8JKeATMmWrac0AjY-19" source="HS3_8JKeATMmWrac0AjY-20" target="HS3_8JKeATMmWrac0AjY-20">
          <mxGeometry relative="1" as="geometry" />
        </mxCell>
        <mxCell id="HS3_8JKeATMmWrac0AjY-22" value="FILM_CATEGORY" style="swimlane;childLayout=stackLayout;horizontal=1;startSize=50;horizontalStack=0;rounded=1;fontSize=14;fontStyle=0;strokeWidth=2;resizeParent=0;resizeLast=1;shadow=0;dashed=0;align=center;arcSize=4;whiteSpace=wrap;html=1;" vertex="1" parent="1">
          <mxGeometry x="550" y="-190" width="160" height="100" as="geometry" />
        </mxCell>
        <mxCell id="HS3_8JKeATMmWrac0AjY-23" value="&lt;div&gt;&lt;span style=&quot;background-color: transparent; color: light-dark(rgb(0, 0, 0), rgb(255, 255, 255));&quot;&gt;&lt;b&gt;film_id&lt;/b&gt;&lt;/span&gt;&lt;/div&gt;&lt;div&gt;&lt;span style=&quot;background-color: transparent; color: light-dark(rgb(0, 0, 0), rgb(255, 255, 255));&quot;&gt;&lt;b&gt;category_id&lt;/b&gt;&lt;/span&gt;&lt;/div&gt;" style="align=left;strokeColor=none;fillColor=none;spacingLeft=4;spacingRight=4;fontSize=12;verticalAlign=top;resizable=0;rotatable=0;part=1;html=1;whiteSpace=wrap;" vertex="1" parent="HS3_8JKeATMmWrac0AjY-22">
          <mxGeometry y="50" width="160" height="50" as="geometry" />
        </mxCell>
        <mxCell id="HS3_8JKeATMmWrac0AjY-24" style="edgeStyle=orthogonalEdgeStyle;rounded=0;orthogonalLoop=1;jettySize=auto;html=1;exitX=0.5;exitY=1;exitDx=0;exitDy=0;" edge="1" parent="HS3_8JKeATMmWrac0AjY-22" source="HS3_8JKeATMmWrac0AjY-23" target="HS3_8JKeATMmWrac0AjY-23">
          <mxGeometry relative="1" as="geometry" />
        </mxCell>
        <mxCell id="HS3_8JKeATMmWrac0AjY-25" value="" style="endArrow=none;html=1;rounded=0;entryX=0.5;entryY=1;entryDx=0;entryDy=0;exitX=0.5;exitY=0;exitDx=0;exitDy=0;" edge="1" parent="1" source="HS3_8JKeATMmWrac0AjY-15" target="HS3_8JKeATMmWrac0AjY-2">
          <mxGeometry width="50" height="50" relative="1" as="geometry">
            <mxPoint x="750" y="260" as="sourcePoint" />
            <mxPoint x="800" y="210" as="targetPoint" />
          </mxGeometry>
        </mxCell>
        <mxCell id="HS3_8JKeATMmWrac0AjY-26" value="1" style="text;html=1;align=center;verticalAlign=middle;resizable=0;points=[];autosize=1;strokeColor=none;fillColor=none;" vertex="1" parent="1">
          <mxGeometry x="630" y="170" width="30" height="30" as="geometry" />
        </mxCell>
        <mxCell id="HS3_8JKeATMmWrac0AjY-27" value="N" style="text;html=1;align=center;verticalAlign=middle;resizable=0;points=[];autosize=1;strokeColor=none;fillColor=none;" vertex="1" parent="1">
          <mxGeometry x="630" y="240" width="30" height="30" as="geometry" />
        </mxCell>
        <mxCell id="HS3_8JKeATMmWrac0AjY-29" value="" style="endArrow=none;html=1;rounded=0;exitX=0.5;exitY=0;exitDx=0;exitDy=0;" edge="1" parent="1">
          <mxGeometry width="50" height="50" relative="1" as="geometry">
            <mxPoint x="629.5699999999999" as="sourcePoint" />
            <mxPoint x="630" y="-90" as="targetPoint" />
          </mxGeometry>
        </mxCell>
        <mxCell id="HS3_8JKeATMmWrac0AjY-30" value="1" style="text;html=1;align=center;verticalAlign=middle;resizable=0;points=[];autosize=1;strokeColor=none;fillColor=none;" vertex="1" parent="1">
          <mxGeometry x="630" y="-30" width="30" height="30" as="geometry" />
        </mxCell>
        <mxCell id="HS3_8JKeATMmWrac0AjY-31" value="N" style="text;html=1;align=center;verticalAlign=middle;resizable=0;points=[];autosize=1;strokeColor=none;fillColor=none;" vertex="1" parent="1">
          <mxGeometry x="630" y="-90" width="30" height="30" as="geometry" />
        </mxCell>
        <mxCell id="HS3_8JKeATMmWrac0AjY-32" value="" style="endArrow=none;html=1;rounded=0;exitX=0.5;exitY=0;exitDx=0;exitDy=0;" edge="1" parent="1">
          <mxGeometry width="50" height="50" relative="1" as="geometry">
            <mxPoint x="629.5699999999999" y="-190" as="sourcePoint" />
            <mxPoint x="630" y="-280" as="targetPoint" />
          </mxGeometry>
        </mxCell>
        <mxCell id="HS3_8JKeATMmWrac0AjY-33" value="1" style="text;html=1;align=center;verticalAlign=middle;resizable=0;points=[];autosize=1;strokeColor=none;fillColor=none;" vertex="1" parent="1">
          <mxGeometry x="630" y="-280" width="30" height="30" as="geometry" />
        </mxCell>
        <mxCell id="HS3_8JKeATMmWrac0AjY-34" value="N" style="text;html=1;align=center;verticalAlign=middle;resizable=0;points=[];autosize=1;strokeColor=none;fillColor=none;" vertex="1" parent="1">
          <mxGeometry x="630" y="-220" width="30" height="30" as="geometry" />
        </mxCell>
      </root>
    </mxGraphModel>
  </diagram>
</mxfile>
